<svg xmlns="http://www.w3.org/2000/svg" width="1100" height="650" viewBox="0 0 1100 650">
<rect width="100%" height="100%" fill="#ffffff"/>
<style>text{font-family:Arial,Helvetica,sans-serif;fill:#20252b} .axis{stroke:#263238;stroke-width:1} .grid{stroke:#dfe5ea;stroke-width:1} .line{fill:none;stroke-width:2.5} .point{stroke:#fff;stroke-width:1} .bar{stroke:#fff;stroke-width:1}</style>
<text x="70" y="34" font-size="22" font-weight="bold">Accepted vs Rejected Optimization Summary</text>
<text x="70" y="55" font-size="12" fill="#59636e">Source: controlled cadence study; Phase 4 candidate comparison | Data: REAL</text>
<line class="grid" x1="78.00" y1="578.00" x2="1066.00" y2="578.00"/>
<text x="68.00" y="582.00" text-anchor="end" font-size="11">-33.3</text>
<line class="grid" x1="78.00" y1="478.00" x2="1066.00" y2="478.00"/>
<text x="68.00" y="482.00" text-anchor="end" font-size="11">-12.1</text>
<line class="grid" x1="78.00" y1="378.00" x2="1066.00" y2="378.00"/>
<text x="68.00" y="382.00" text-anchor="end" font-size="11">9.09</text>
<line class="grid" x1="78.00" y1="278.00" x2="1066.00" y2="278.00"/>
<text x="68.00" y="282.00" text-anchor="end" font-size="11">30.3</text>
<line class="grid" x1="78.00" y1="178.00" x2="1066.00" y2="178.00"/>
<text x="68.00" y="182.00" text-anchor="end" font-size="11">51.5</text>
<line class="grid" x1="78.00" y1="78.00" x2="1066.00" y2="78.00"/>
<text x="68.00" y="82.00" text-anchor="end" font-size="11">72.7</text>
<line class="axis" x1="78.0" y1="78.0" x2="78.0" y2="578.0"/>
<line class="axis" x1="78.0" y1="578.0" x2="1066.0" y2="578.0"/>
<text x="572.00" y="626" text-anchor="middle" font-size="13">Applications</text>
<text x="18" y="328.00" text-anchor="middle" font-size="13" transform="rotate(-90 18 328.00)">Percent</text>
<text x="325.00" y="598.00" text-anchor="middle" font-size="11" transform="rotate(-25 325.00 598.00)">discovery accepted</text>
<rect class="bar" x="147.16" y="420.85" width="355.68" height="308.36" fill="#1f4e79"/>
<text x="819.00" y="598.00" text-anchor="middle" font-size="11" transform="rotate(-25 819.00 598.00)">Phase 4 rejected</text>
<rect class="bar" x="641.16" y="420.85" width="355.68" height="122.67" fill="#1f4e79"/>
<rect x="850" y="67" width="14" height="14" fill="#1f4e79"/>
<text x="871" y="79" font-size="12">percent effect</text>
</svg>
