<svg xmlns="http://www.w3.org/2000/svg" width="1100" height="650" viewBox="0 0 1100 650">
<rect width="100%" height="100%" fill="#ffffff"/>
<style>text{font-family:Arial,Helvetica,sans-serif;fill:#20252b} .axis{stroke:#263238;stroke-width:1} .grid{stroke:#dfe5ea;stroke-width:1} .line{fill:none;stroke-width:2.5} .point{stroke:#fff;stroke-width:1} .bar{stroke:#fff;stroke-width:1}</style>
<text x="70" y="34" font-size="22" font-weight="bold">Baseline vs Final AWAVMA Execution Time</text>
<text x="70" y="55" font-size="12" fill="#59636e">Source: results/final_integrated_performance_summary.csv | Data: REAL</text>
<line class="grid" x1="78.00" y1="578.00" x2="1066.00" y2="578.00"/>
<text x="68.00" y="582.00" text-anchor="end" font-size="11">-16.6</text>
<line class="grid" x1="78.00" y1="478.00" x2="1066.00" y2="478.00"/>
<text x="68.00" y="482.00" text-anchor="end" font-size="11">31.5</text>
<line class="grid" x1="78.00" y1="378.00" x2="1066.00" y2="378.00"/>
<text x="68.00" y="382.00" text-anchor="end" font-size="11">79.5</text>
<line class="grid" x1="78.00" y1="278.00" x2="1066.00" y2="278.00"/>
<text x="68.00" y="282.00" text-anchor="end" font-size="11">127</text>
<line class="grid" x1="78.00" y1="178.00" x2="1066.00" y2="178.00"/>
<text x="68.00" y="182.00" text-anchor="end" font-size="11">175</text>
<line class="grid" x1="78.00" y1="78.00" x2="1066.00" y2="78.00"/>
<text x="68.00" y="82.00" text-anchor="end" font-size="11">223</text>
<line class="axis" x1="78.0" y1="78.0" x2="78.0" y2="578.0"/>
<line class="axis" x1="78.0" y1="578.0" x2="1066.0" y2="578.0"/>
<text x="572.00" y="626" text-anchor="middle" font-size="13">Workload</text>
<text x="18" y="328.00" text-anchor="middle" font-size="13" transform="rotate(-90 18 328.00)">Mean milliseconds</text>
<text x="139.75" y="598.00" text-anchor="middle" font-size="11" transform="rotate(-25 139.75 598.00)">sequential</text>
<rect class="bar" x="95.29" y="543.52" width="44.46" height="222.40" fill="#1f4e79"/>
<rect class="bar" x="139.75" y="543.52" width="44.46" height="232.78" fill="#b23a48"/>
<text x="263.25" y="598.00" text-anchor="middle" font-size="11" transform="rotate(-25 263.25 598.00)">random</text>
<rect class="bar" x="218.79" y="543.52" width="44.46" height="387.76" fill="#1f4e79"/>
<rect class="bar" x="263.25" y="543.52" width="44.46" height="351.98" fill="#b23a48"/>
<text x="386.75" y="598.00" text-anchor="middle" font-size="11" transform="rotate(-25 386.75 598.00)">hot</text>
<rect class="bar" x="342.29" y="543.52" width="44.46" height="283.08" fill="#1f4e79"/>
<rect class="bar" x="386.75" y="543.52" width="44.46" height="264.21" fill="#b23a48"/>
<text x="510.25" y="598.00" text-anchor="middle" font-size="11" transform="rotate(-25 510.25 598.00)">moderate</text>
<rect class="bar" x="465.79" y="543.52" width="44.46" height="431.03" fill="#1f4e79"/>
<rect class="bar" x="510.25" y="543.52" width="44.46" height="389.50" fill="#b23a48"/>
<text x="633.75" y="598.00" text-anchor="middle" font-size="11" transform="rotate(-25 633.75 598.00)">cold</text>
<rect class="bar" x="589.29" y="543.52" width="44.46" height="396.21" fill="#1f4e79"/>
<rect class="bar" x="633.75" y="543.52" width="44.46" height="308.78" fill="#b23a48"/>
<text x="757.25" y="598.00" text-anchor="middle" font-size="11" transform="rotate(-25 757.25 598.00)">mixed</text>
<rect class="bar" x="712.79" y="543.52" width="44.46" height="373.33" fill="#1f4e79"/>
<rect class="bar" x="757.25" y="543.52" width="44.46" height="360.20" fill="#b23a48"/>
<text x="880.75" y="598.00" text-anchor="middle" font-size="11" transform="rotate(-25 880.75 598.00)">changing</text>
<rect class="bar" x="836.29" y="543.52" width="44.46" height="413.78" fill="#1f4e79"/>
<rect class="bar" x="880.75" y="543.52" width="44.46" height="353.10" fill="#b23a48"/>
<text x="1004.25" y="598.00" text-anchor="middle" font-size="11" transform="rotate(-25 1004.25 598.00)">local</text>
<rect class="bar" x="959.79" y="543.52" width="44.46" height="206.92" fill="#1f4e79"/>
<rect class="bar" x="1004.25" y="543.52" width="44.46" height="217.98" fill="#b23a48"/>
<rect x="850" y="67" width="14" height="14" fill="#1f4e79"/>
<text x="871" y="79" font-size="12">baseline</text>
<rect x="850" y="87" width="14" height="14" fill="#b23a48"/>
<text x="871" y="99" font-size="12">final AWAVMA</text>
</svg>
