<svg xmlns="http://www.w3.org/2000/svg" width="800" height="460"><text x="30" y="35" font-size="20">Classifier Score</text><text x="30" y="60">Score</text><rect x="80" y="387.910" width="120" height="2.090" fill="#1f4e79"/><text x="80" y="420">0</text><text x="80" y="377.910">4.66348</text><rect x="255" y="90.000" width="120" height="300.000" fill="#1f4e79"/><text x="255" y="420">7</text><text x="255" y="80.000">669.474</text><rect x="430" y="90.000" width="120" height="300.000" fill="#1f4e79"/><text x="430" y="420">95</text><text x="430" y="80.000">669.474</text><rect x="605" y="90.000" width="120" height="300.000" fill="#1f4e79"/><text x="605" y="420">192</text><text x="605" y="80.000">669.474</text><rect x="780" y="90.000" width="120" height="300.000" fill="#1f4e79"/><text x="780" y="420">298</text><text x="780" y="80.000">669.474</text><rect x="955" y="90.000" width="120" height="300.000" fill="#1f4e79"/><text x="955" y="420">413</text><text x="955" y="80.000">669.474</text><rect x="1130" y="90.000" width="120" height="300.000" fill="#1f4e79"/><text x="1130" y="420">537</text><text x="1130" y="80.000">669.474</text><rect x="1305" y="90.000" width="120" height="300.000" fill="#1f4e79"/><text x="1305" y="420">670</text><text x="1305" y="80.000">669.474</text><rect x="1480" y="90.000" width="120" height="300.000" fill="#1f4e79"/><text x="1480" y="420">812</text><text x="1480" y="80.000">669.474</text><rect x="1655" y="90.000" width="120" height="300.000" fill="#1f4e79"/><text x="1655" y="420">963</text><text x="1655" y="80.000">669.474</text><rect x="1830" y="90.000" width="120" height="300.000" fill="#1f4e79"/><text x="1830" y="420">1123</text><text x="1830" y="80.000">669.474</text><rect x="2005" y="149.017" width="120" height="240.983" fill="#1f4e79"/><text x="2005" y="420">1292</text><text x="2005" y="139.017">537.773</text><rect x="2180" y="90.000" width="120" height="300.000" fill="#1f4e79"/><text x="2180" y="420">1308</text><text x="2180" y="80.000">669.474</text><rect x="2355" y="90.000" width="120" height="300.000" fill="#1f4e79"/><text x="2355" y="420">1486</text><text x="2355" y="80.000">669.474</text><rect x="2530" y="90.000" width="120" height="300.000" fill="#1f4e79"/><text x="2530" y="420">1673</text><text x="2530" y="80.000">669.474</text><rect x="2705" y="90.000" width="120" height="300.000" fill="#1f4e79"/><text x="2705" y="420">1869</text><text x="2705" y="80.000">669.474</text><rect x="2880" y="90.000" width="120" height="300.000" fill="#1f4e79"/><text x="2880" y="420">2074</text><text x="2880" y="80.000">669.474</text><rect x="3055" y="90.000" width="120" height="300.000" fill="#1f4e79"/><text x="3055" y="420">2288</text><text x="3055" y="80.000">669.474</text><rect x="3230" y="90.000" width="120" height="300.000" fill="#1f4e79"/><text x="3230" y="420">2512</text><text x="3230" y="80.000">669.474</text><rect x="3405" y="90.000" width="120" height="300.000" fill="#1f4e79"/><text x="3405" y="420">2746</text><text x="3405" y="80.000">669.474</text><rect x="3580" y="90.000" width="120" height="300.000" fill="#1f4e79"/><text x="3580" y="420">2990</text><text x="3580" y="80.000">669.474</text><rect x="3755" y="90.000" width="120" height="300.000" fill="#1f4e79"/><text x="3755" y="420">3015</text><text x="3755" y="80.000">669.474</text><rect x="3930" y="90.000" width="120" height="300.000" fill="#1f4e79"/><text x="3930" y="420">3049</text><text x="3930" y="80.000">669.474</text><rect x="4105" y="90.000" width="120" height="300.000" fill="#1f4e79"/><text x="4105" y="420">3092</text><text x="4105" y="80.000">669.474</text><rect x="4280" y="90.000" width="120" height="300.000" fill="#1f4e79"/><text x="4280" y="420">3144</text><text x="4280" y="80.000">669.474</text><rect x="4455" y="90.000" width="120" height="300.000" fill="#1f4e79"/><text x="4455" y="420">3205</text><text x="4455" y="80.000">669.474</text><rect x="4630" y="90.000" width="120" height="300.000" fill="#1f4e79"/><text x="4630" y="420">3275</text><text x="4630" y="80.000">669.474</text><rect x="4805" y="390.000" width="120" height="0.000" fill="#1f4e79"/><text x="4805" y="420">3354</text><text x="4805" y="380.000">0</text><rect x="4980" y="90.000" width="120" height="300.000" fill="#1f4e79"/><text x="4980" y="420">3363</text><text x="4980" y="80.000">669.474</text><rect x="5155" y="90.000" width="120" height="300.000" fill="#1f4e79"/><text x="5155" y="420">3462</text><text x="5155" y="80.000">669.474</text><rect x="5330" y="90.000" width="120" height="300.000" fill="#1f4e79"/><text x="5330" y="420">3571</text><text x="5330" y="80.000">669.474</text><rect x="5505" y="90.000" width="120" height="300.000" fill="#1f4e79"/><text x="5505" y="420">3690</text><text x="5505" y="80.000">669.474</text><rect x="5680" y="90.000" width="120" height="300.000" fill="#1f4e79"/><text x="5680" y="420">3819</text><text x="5680" y="80.000">669.474</text><rect x="5855" y="90.000" width="120" height="300.000" fill="#1f4e79"/><text x="5855" y="420">3958</text><text x="5855" y="80.000">669.474</text><rect x="6030" y="90.000" width="120" height="300.000" fill="#1f4e79"/><text x="6030" y="420">4107</text><text x="6030" y="80.000">669.474</text><rect x="6205" y="90.000" width="120" height="300.000" fill="#1f4e79"/><text x="6205" y="420">4266</text><text x="6205" y="80.000">669.474</text><rect x="6380" y="90.000" width="120" height="300.000" fill="#1f4e79"/><text x="6380" y="420">4435</text><text x="6380" y="80.000">669.474</text><rect x="6555" y="90.000" width="120" height="300.000" fill="#1f4e79"/><text x="6555" y="420">4614</text><text x="6555" y="80.000">669.474</text><rect x="6730" y="118.668" width="120" height="271.332" fill="#1f4e79"/><text x="6730" y="420">4803</text><text x="6730" y="108.668">605.499</text><rect x="6905" y="90.000" width="120" height="300.000" fill="#1f4e79"/><text x="6905" y="420">4822</text><text x="6905" y="80.000">669.474</text><rect x="7080" y="90.000" width="120" height="300.000" fill="#1f4e79"/><text x="7080" y="420">5021</text><text x="7080" y="80.000">669.474</text><rect x="7255" y="90.000" width="120" height="300.000" fill="#1f4e79"/><text x="7255" y="420">5230</text><text x="7255" y="80.000">669.474</text><rect x="7430" y="90.000" width="120" height="300.000" fill="#1f4e79"/><text x="7430" y="420">5449</text><text x="7430" y="80.000">669.474</text><rect x="7605" y="90.000" width="120" height="300.000" fill="#1f4e79"/><text x="7605" y="420">5678</text><text x="7605" y="80.000">669.474</text><rect x="7780" y="90.000" width="120" height="300.000" fill="#1f4e79"/><text x="7780" y="420">5917</text><text x="7780" y="80.000">669.474</text><rect x="7955" y="90.000" width="120" height="300.000" fill="#1f4e79"/><text x="7955" y="420">6166</text><text x="7955" y="80.000">669.474</text><rect x="8130" y="90.000" width="120" height="300.000" fill="#1f4e79"/><text x="8130" y="420">6425</text><text x="8130" y="80.000">669.474</text><rect x="8305" y="90.000" width="120" height="300.000" fill="#1f4e79"/><text x="8305" y="420">6694</text><text x="8305" y="80.000">669.474</text><rect x="8480" y="90.000" width="120" height="300.000" fill="#1f4e79"/><text x="8480" y="420">6723</text><text x="8480" y="80.000">669.474</text><rect x="8655" y="90.000" width="120" height="300.000" fill="#1f4e79"/><text x="8655" y="420">6762</text><text x="8655" y="80.000">669.474</text><rect x="8830" y="90.000" width="120" height="300.000" fill="#1f4e79"/><text x="8830" y="420">6811</text><text x="8830" y="80.000">669.474</text><rect x="9005" y="90.000" width="120" height="300.000" fill="#1f4e79"/><text x="9005" y="420">6870</text><text x="9005" y="80.000">669.474</text><rect x="9180" y="90.000" width="120" height="300.000" fill="#1f4e79"/><text x="9180" y="420">6939</text><text x="9180" y="80.000">669.474</text><rect x="9355" y="90.000" width="120" height="300.000" fill="#1f4e79"/><text x="9355" y="420">7018</text><text x="9355" y="80.000">669.474</text><rect x="9530" y="390.000" width="120" height="0.000" fill="#1f4e79"/><text x="9530" y="420">7107</text><text x="9530" y="380.000">0</text><rect x="9705" y="90.000" width="120" height="300.000" fill="#1f4e79"/><text x="9705" y="420">7114</text><text x="9705" y="80.000">669.474</text><rect x="9880" y="90.000" width="120" height="300.000" fill="#1f4e79"/><text x="9880" y="420">7201</text><text x="9880" y="80.000">669.474</text><rect x="10055" y="90.000" width="120" height="300.000" fill="#1f4e79"/><text x="10055" y="420">7297</text><text x="10055" y="80.000">669.474</text><rect x="10230" y="90.000" width="120" height="300.000" fill="#1f4e79"/><text x="10230" y="420">7402</text><text x="10230" y="80.000">669.474</text><rect x="10405" y="90.000" width="120" height="300.000" fill="#1f4e79"/><text x="10405" y="420">7516</text><text x="10405" y="80.000">669.474</text><rect x="10580" y="90.000" width="120" height="300.000" fill="#1f4e79"/><text x="10580" y="420">7639</text><text x="10580" y="80.000">669.474</text><rect x="10755" y="90.000" width="120" height="300.000" fill="#1f4e79"/><text x="10755" y="420">7771</text><text x="10755" y="80.000">669.474</text><rect x="10930" y="90.000" width="120" height="300.000" fill="#1f4e79"/><text x="10930" y="420">7912</text><text x="10930" y="80.000">669.474</text><rect x="11105" y="90.000" width="120" height="300.000" fill="#1f4e79"/><text x="11105" y="420">8062</text><text x="11105" y="80.000">669.474</text><rect x="11280" y="90.000" width="120" height="300.000" fill="#1f4e79"/><text x="11280" y="420">8221</text><text x="11280" y="80.000">669.474</text><rect x="11455" y="142.150" width="120" height="247.850" fill="#1f4e79"/><text x="11455" y="420">8389</text><text x="11455" y="132.150">553.098</text><rect x="11630" y="90.000" width="120" height="300.000" fill="#1f4e79"/><text x="11630" y="420">8405</text><text x="11630" y="80.000">669.474</text><rect x="11805" y="90.000" width="120" height="300.000" fill="#1f4e79"/><text x="11805" y="420">8582</text><text x="11805" y="80.000">669.474</text><rect x="11980" y="90.000" width="120" height="300.000" fill="#1f4e79"/><text x="11980" y="420">8768</text><text x="11980" y="80.000">669.474</text><rect x="12155" y="90.000" width="120" height="300.000" fill="#1f4e79"/><text x="12155" y="420">8963</text><text x="12155" y="80.000">669.474</text><rect x="12330" y="90.000" width="120" height="300.000" fill="#1f4e79"/><text x="12330" y="420">9167</text><text x="12330" y="80.000">669.474</text><rect x="12505" y="90.000" width="120" height="300.000" fill="#1f4e79"/><text x="12505" y="420">9381</text><text x="12505" y="80.000">669.474</text><rect x="12680" y="90.000" width="120" height="300.000" fill="#1f4e79"/><text x="12680" y="420">9605</text><text x="12680" y="80.000">669.474</text><rect x="12855" y="90.000" width="120" height="300.000" fill="#1f4e79"/><text x="12855" y="420">9839</text><text x="12855" y="80.000">669.474</text><rect x="13030" y="90.000" width="120" height="300.000" fill="#1f4e79"/><text x="13030" y="420">10083</text><text x="13030" y="80.000">669.474</text><rect x="13205" y="90.000" width="120" height="300.000" fill="#1f4e79"/><text x="13205" y="420">10108</text><text x="13205" y="80.000">669.474</text><rect x="13380" y="90.000" width="120" height="300.000" fill="#1f4e79"/><text x="13380" y="420">10142</text><text x="13380" y="80.000">669.474</text><rect x="13555" y="90.000" width="120" height="300.000" fill="#1f4e79"/><text x="13555" y="420">10185</text><text x="13555" y="80.000">669.474</text><rect x="13730" y="90.000" width="120" height="300.000" fill="#1f4e79"/><text x="13730" y="420">10236</text><text x="13730" y="80.000">669.474</text><rect x="13905" y="90.000" width="120" height="300.000" fill="#1f4e79"/><text x="13905" y="420">10296</text><text x="13905" y="80.000">669.474</text><rect x="14080" y="90.000" width="120" height="300.000" fill="#1f4e79"/><text x="14080" y="420">10365</text><text x="14080" y="80.000">669.474</text><rect x="14255" y="390.000" width="120" height="0.000" fill="#1f4e79"/><text x="14255" y="420">10443</text><text x="14255" y="380.000">0</text><rect x="14430" y="90.000" width="120" height="300.000" fill="#1f4e79"/><text x="14430" y="420">10452</text><text x="14430" y="80.000">669.474</text><rect x="14605" y="90.000" width="120" height="300.000" fill="#1f4e79"/><text x="14605" y="420">10544</text><text x="14605" y="80.000">669.474</text><rect x="14780" y="90.000" width="120" height="300.000" fill="#1f4e79"/><text x="14780" y="420">10645</text><text x="14780" y="80.000">669.474</text><rect x="14955" y="90.000" width="120" height="300.000" fill="#1f4e79"/><text x="14955" y="420">10754</text><text x="14955" y="80.000">669.474</text><rect x="15130" y="90.000" width="120" height="300.000" fill="#1f4e79"/><text x="15130" y="420">10871</text><text x="15130" y="80.000">669.474</text><rect x="15305" y="90.000" width="120" height="300.000" fill="#1f4e79"/><text x="15305" y="420">10997</text><text x="15305" y="80.000">669.474</text><rect x="15480" y="90.000" width="120" height="300.000" fill="#1f4e79"/><text x="15480" y="420">11132</text><text x="15480" y="80.000">669.474</text><rect x="15655" y="90.000" width="120" height="300.000" fill="#1f4e79"/><text x="15655" y="420">11276</text><text x="15655" y="80.000">669.474</text><rect x="15830" y="90.000" width="120" height="300.000" fill="#1f4e79"/><text x="15830" y="420">11429</text><text x="15830" y="80.000">669.474</text><rect x="16005" y="90.000" width="120" height="300.000" fill="#1f4e79"/><text x="16005" y="420">11591</text><text x="16005" y="80.000">669.474</text><rect x="16180" y="114.023" width="120" height="275.977" fill="#1f4e79"/><text x="16180" y="420">11762</text><text x="16180" y="104.023">615.865</text><rect x="16355" y="90.000" width="120" height="300.000" fill="#1f4e79"/><text x="16355" y="420">11781</text><text x="16355" y="80.000">669.474</text><rect x="16530" y="90.000" width="120" height="300.000" fill="#1f4e79"/><text x="16530" y="420">11961</text><text x="16530" y="80.000">669.474</text><rect x="16705" y="90.000" width="120" height="300.000" fill="#1f4e79"/><text x="16705" y="420">12150</text><text x="16705" y="80.000">669.474</text><rect x="16880" y="90.000" width="120" height="300.000" fill="#1f4e79"/><text x="16880" y="420">12349</text><text x="16880" y="80.000">669.474</text><rect x="17055" y="90.000" width="120" height="300.000" fill="#1f4e79"/><text x="17055" y="420">12558</text><text x="17055" y="80.000">669.474</text><rect x="17230" y="90.000" width="120" height="300.000" fill="#1f4e79"/><text x="17230" y="420">12777</text><text x="17230" y="80.000">669.474</text><rect x="17405" y="90.000" width="120" height="300.000" fill="#1f4e79"/><text x="17405" y="420">13006</text><text x="17405" y="80.000">669.474</text><rect x="17580" y="90.000" width="120" height="300.000" fill="#1f4e79"/><text x="17580" y="420">13244</text><text x="17580" y="80.000">669.474</text><rect x="17755" y="90.000" width="120" height="300.000" fill="#1f4e79"/><text x="17755" y="420">13491</text><text x="17755" y="80.000">669.474</text><rect x="17930" y="90.000" width="120" height="300.000" fill="#1f4e79"/><text x="17930" y="420">13520</text><text x="17930" y="80.000">669.474</text><rect x="18105" y="90.000" width="120" height="300.000" fill="#1f4e79"/><text x="18105" y="420">13558</text><text x="18105" y="80.000">669.474</text><rect x="18280" y="90.000" width="120" height="300.000" fill="#1f4e79"/><text x="18280" y="420">13605</text><text x="18280" y="80.000">669.474</text><rect x="18455" y="90.000" width="120" height="300.000" fill="#1f4e79"/><text x="18455" y="420">13661</text><text x="18455" y="80.000">669.474</text><rect x="18630" y="90.000" width="120" height="300.000" fill="#1f4e79"/><text x="18630" y="420">13726</text><text x="18630" y="80.000">669.474</text><rect x="18805" y="90.000" width="120" height="300.000" fill="#1f4e79"/><text x="18805" y="420">13800</text><text x="18805" y="80.000">669.474</text><rect x="18980" y="390.000" width="120" height="0.000" fill="#1f4e79"/><text x="18980" y="420">13883</text><text x="18980" y="380.000">0</text><rect x="19155" y="90.000" width="120" height="300.000" fill="#1f4e79"/><text x="19155" y="420">13891</text><text x="19155" y="80.000">669.474</text><rect x="19330" y="90.000" width="120" height="300.000" fill="#1f4e79"/><text x="19330" y="420">13981</text><text x="19330" y="80.000">669.474</text><rect x="19505" y="90.000" width="120" height="300.000" fill="#1f4e79"/><text x="19505" y="420">14080</text><text x="19505" y="80.000">669.474</text><rect x="19680" y="90.000" width="120" height="300.000" fill="#1f4e79"/><text x="19680" y="420">14188</text><text x="19680" y="80.000">669.474</text><rect x="19855" y="90.000" width="120" height="300.000" fill="#1f4e79"/><text x="19855" y="420">14305</text><text x="19855" y="80.000">669.474</text><rect x="20030" y="90.000" width="120" height="300.000" fill="#1f4e79"/><text x="20030" y="420">14431</text><text x="20030" y="80.000">669.474</text><rect x="20205" y="90.000" width="120" height="300.000" fill="#1f4e79"/><text x="20205" y="420">14565</text><text x="20205" y="80.000">669.474</text><rect x="20380" y="90.000" width="120" height="300.000" fill="#1f4e79"/><text x="20380" y="420">14707</text><text x="20380" y="80.000">669.474</text><rect x="20555" y="90.000" width="120" height="300.000" fill="#1f4e79"/><text x="20555" y="420">14857</text><text x="20555" y="80.000">669.474</text><rect x="20730" y="90.000" width="120" height="300.000" fill="#1f4e79"/><text x="20730" y="420">15016</text><text x="20730" y="80.000">669.474</text><rect x="20905" y="137.922" width="120" height="252.078" fill="#1f4e79"/><text x="20905" y="420">15184</text><text x="20905" y="127.922">562.533</text><rect x="21080" y="90.000" width="120" height="300.000" fill="#1f4e79"/><text x="21080" y="420">15201</text><text x="21080" y="80.000">669.474</text><rect x="21255" y="90.000" width="120" height="300.000" fill="#1f4e79"/><text x="21255" y="420">15378</text><text x="21255" y="80.000">669.474</text><rect x="21430" y="90.000" width="120" height="300.000" fill="#1f4e79"/><text x="21430" y="420">15564</text><text x="21430" y="80.000">669.474</text><rect x="21605" y="90.000" width="120" height="300.000" fill="#1f4e79"/><text x="21605" y="420">15758</text><text x="21605" y="80.000">669.474</text><rect x="21780" y="90.000" width="120" height="300.000" fill="#1f4e79"/><text x="21780" y="420">15961</text><text x="21780" y="80.000">669.474</text><rect x="21955" y="90.000" width="120" height="300.000" fill="#1f4e79"/><text x="21955" y="420">16172</text><text x="21955" y="80.000">669.474</text><rect x="22130" y="90.000" width="120" height="300.000" fill="#1f4e79"/><text x="22130" y="420">16392</text><text x="22130" y="80.000">669.474</text><rect x="22305" y="90.000" width="120" height="300.000" fill="#1f4e79"/><text x="22305" y="420">16621</text><text x="22305" y="80.000">669.474</text><rect x="22480" y="90.000" width="120" height="300.000" fill="#1f4e79"/><text x="22480" y="420">16858</text><text x="22480" y="80.000">669.474</text><rect x="22655" y="90.000" width="120" height="300.000" fill="#1f4e79"/><text x="22655" y="420">16884</text><text x="22655" y="80.000">669.474</text><rect x="22830" y="90.000" width="120" height="300.000" fill="#1f4e79"/><text x="22830" y="420">16919</text><text x="22830" y="80.000">669.474</text><rect x="23005" y="90.000" width="120" height="300.000" fill="#1f4e79"/><text x="23005" y="420">16964</text><text x="23005" y="80.000">669.474</text><rect x="23180" y="90.000" width="120" height="300.000" fill="#1f4e79"/><text x="23180" y="420">17018</text><text x="23180" y="80.000">669.474</text><rect x="23355" y="90.000" width="120" height="300.000" fill="#1f4e79"/><text x="23355" y="420">17081</text><text x="23355" y="80.000">669.474</text><rect x="23530" y="90.000" width="120" height="300.000" fill="#1f4e79"/><text x="23530" y="420">17153</text><text x="23530" y="80.000">669.474</text></svg>
